<?xml version="1.0" encoding="utf-8"?>
<!-- Svg Vector Icons : http://www.onlinewebfonts.com/icon -->
<!DOCTYPE svg PUBLIC "-//W3C//DTD SVG 1.1//EN" "http://www.w3.org/Graphics/SVG/1.1/DTD/svg11.dtd">
<svg version="1.1" xmlns="http://www.w3.org/2000/svg" xmlns:xlink="http://www.w3.org/1999/xlink" x="0px" y="0px" viewBox="0 0 1000 1000" enable-background="new 0 0 1000 1000" xml:space="preserve">
<metadata> Svg Vector Icons : http://www.onlinewebfonts.com/icon </metadata>
<g><g transform="translate(0.000000,512.000000) scale(0.100000,-0.100000)"><path fill="white"  d="M1941.3,5000.4c-162.8-46-344.7-231.7-390.6-396.4c-9.6-38.3-19.2-145.5-19.2-237.4v-168.5h-342.8c-340.8,0-344.7,0-402.1-49.8c-72.8-61.3-93.8-153.2-51.7-235.5C790.5,3809.4,842.2,3796,1206,3796h325.5v-411.7v-411.7h-342.8c-340.8,0-344.7,0-402.1-49.8c-72.8-61.3-93.8-153.2-51.7-235.5c55.5-103.4,107.2-116.8,471.1-116.8h325.5v-411.7v-411.7h-342.8c-340.8,0-344.7,0-402.1-49.8c-72.8-61.3-93.8-153.2-51.7-235.5C790.5,1358.5,842.2,1345,1206,1345h325.5V933.4V521.7h-344.7H842.2L784.8,470c-109.2-97.6-80.4-281.5,49.8-331.3c26.8-11.5,195.3-19.2,373.4-19.2h323.6v-411.7v-411.7h-344.7H842.2l-57.4-51.7c-109.2-97.6-80.4-281.5,49.8-331.3c26.8-11.5,195.3-19.2,373.4-19.2h323.6v-411.7v-411.7h-344.7H842.2l-57.4-51.7c-109.2-97.6-80.4-281.5,49.8-331.3c26.8-11.5,195.3-19.1,373.4-19.1h323.6v-411.7v-411.7h-344.7H842.2l-57.4-51.7c-109.2-97.6-80.4-281.5,49.8-331.3c26.8-11.5,193.4-19.2,371.5-19.2h323.6l5.8-405.9c5.7-381,9.6-413.6,49.8-488.3c63.2-120.6,141.7-203,256.6-266.1l101.5-55.5l3437.1-5.7c3102-3.8,3444.8-1.9,3527.1,26.8c124.5,40.2,285.3,189.6,338.9,312.1l40.2,93.8V119.6V4583l-40.2,95.7c-51.7,120.6-214.5,270-335.1,312.1c-82.4,26.8-417.5,30.6-3500.3,28.7C3429.1,5019.6,1975.8,5010,1941.3,5000.4z M8865.3,4581.1c11.5-17.2,19.2-1700.4,19.2-4461.5c0-2761.2-7.7-4444.3-19.2-4461.5c-26.8-42.1-6826.3-53.6-6883.7-11.5c-36.4,24.9-38.3,55.5-44,411.7l-5.8,384.9h145.5c155.1,0,208.7,17.2,262.3,84.3c51.7,61.3,44,189.6-11.5,254.7c-42.1,49.8-59.4,53.6-216.4,63.2l-168.5,9.6l-5.7,405.9l-3.8,407.9h143.6c155.1,0,208.7,17.2,262.3,84.3c51.7,61.3,44,189.6-11.5,254.7c-42.1,49.8-59.4,53.6-216.4,63.2l-168.5,9.6l-5.7,407.9l-3.8,405.9h143.6c155.1,0,208.7,17.2,262.3,84.3c51.7,61.3,44,189.6-11.5,254.7c-42.1,49.8-59.4,53.6-216.4,63.2l-168.5,9.6l-5.7,407.9l-3.8,405.9h143.6c155.1,0,208.7,17.2,262.3,84.3c51.7,61.3,44,189.6-11.5,254.7c-42.1,49.8-59.4,53.6-216.4,63.2l-168.5,9.6l-5.7,407.9l-3.8,405.9h143.6c155.1,0,208.7,17.2,262.3,84.3c51.7,61.3,44,189.6-11.5,254.7c-42.1,49.8-59.4,53.6-216.4,63.2l-168.5,9.6l-5.7,407.9l-3.8,405.9h143.6c155.1,0,208.7,17.2,262.3,84.2c51.7,61.3,44,189.6-11.5,254.7c-42.1,49.8-59.4,53.6-216.4,63.2l-168.5,9.6l-5.7,407.9l-3.8,405.9h143.6c155.1,0,208.7,17.2,262.3,84.2c51.7,61.3,44,189.6-11.5,254.7c-42.1,49.8-59.4,53.6-216.4,63.2l-168.5,9.6v178.1c0,155.1,5.7,183.8,38.3,206.8C2039,4634.7,8838.5,4623.2,8865.3,4581.1z"/><path fill="white" d="M5035.7,2861.6c-383-126.4-532.3-208.7-708.5-386.8c-258.5-256.6-342.8-484.4-358.1-961.2c-19.2-540,86.2-1110.6,360-1934c444.2-1348,988.1-2123.5,1589.3-2265.2c185.7-42.1,421.3-36.4,631.9,17.2c201.1,51.7,509.4,162.8,584,212.5c51.7,32.6,141.7,203,141.7,268.1c0,21.1-116.8,388.7-260.4,817.6c-289.1,871.2-287.2,867.4-480.6,913.4c-90,23-109.2,19.1-327.4-51.7c-268.1-88.1-245.1-95.7-354.2,122.5c-141.7,285.3-273.8,731.4-294.9,1003.3l-9.6,143.6l197.2,61.3c109.1,34.5,225.9,78.5,258.5,99.6c72.8,44,141.7,180,141.7,277.6c0,93.8-488.3,1583.6-540,1650.6c-49.8,61.3-143.6,103.4-229.8,103.4C5342,2953.5,5188.8,2911.4,5035.7,2861.6z M5520.1,1879.3c114.9-348.5,204.9-635.7,201.1-637.6c-3.8-1.9-93.8-30.6-201.1-65.1c-231.7-74.7-289.1-128.3-342.8-321.7c-120.6-446.1,258.5-1526.1,622.3-1769.3c120.7-82.3,178.1-86.2,375.3-26.8c95.7,28.7,189.6,55.5,210.6,59.4c34.5,7.7,57.5-51.7,245.1-610.8c113-340.8,204.9-628.1,204.9-639.5c0-13.4-97.7-55.5-214.5-95.7c-195.3-65.1-235.5-72.8-417.4-74.7c-191.5,0-206.8,3.8-335.1,67c-407.9,203-775.5,813.8-1135.5,1886.1c-453.8,1348-499.8,2138.8-145.5,2519.9c51.7,53.6,130.2,118.7,176.2,145.5c84.3,49.8,469.1,195.3,520.8,195.3C5305.6,2513.1,5368.8,2340.8,5520.1,1879.3z"/></g></g>
</svg>